<svg width="79" height="81" viewBox="0 0 79 81" fill="none" xmlns="http://www.w3.org/2000/svg">
<path d="M73.3571 0.6875H5.62522C2.52165 0.6875 0 3.26465 0 6.42832V74.5717C0 77.7354 2.52165 80.3125 5.62522 80.3125H73.3571C76.4607 80.3125 79 77.7354 79 74.5717V6.42832C79 3.26465 76.4607 0.6875 73.3571 0.6875ZM23.8763 68.9375H12.1674V30.9379H23.894V68.9375H23.8763ZM18.0219 25.748C14.2658 25.748 11.2328 22.6732 11.2328 18.9053C11.2328 15.1373 14.2658 12.0625 18.0219 12.0625C21.7603 12.0625 24.8109 15.1373 24.8109 18.9053C24.8109 22.691 21.7779 25.748 18.0219 25.748ZM67.7672 68.9375H56.0583V50.4531C56.0583 46.0453 55.9701 40.3756 49.9746 40.3756C43.8732 40.3756 42.9386 45.1744 42.9386 50.1332V68.9375H31.2297V30.9379H42.4625V36.1277H42.6212C44.1906 33.1418 48.0172 29.9959 53.7129 29.9959C65.5629 29.9959 67.7672 37.8695 67.7672 48.107V68.9375Z" fill="#1D3150"/>
</svg>
