<?xml version="1.0" encoding="utf-8"?>
<svg xmlns="http://www.w3.org/2000/svg">
  <defs>
    <symbol id="icon-calendar" viewBox="0 0 50 58" fill="none" xmlns="http://www.w3.org/2000/svg" class="app-icon-list__icon">
      <path d="M14.2857 0C16.2612 0 17.8571 1.59598 17.8571 3.57143V7.14286H32.1429V3.57143C32.1429 1.59598 33.7388 0 35.7143 0C37.6897 0 39.2857 1.59598 39.2857 3.57143V7.14286H44.6429C47.6004 7.14286 50 9.54241 50 12.5V17.8571H0V12.5C0 9.54241 2.39955 7.14286 5.35714 7.14286H10.7143V3.57143C10.7143 1.59598 12.3103 0 14.2857 0ZM0 21.4286H50V51.7857C50 54.7433 47.6004 57.1429 44.6429 57.1429H5.35714C2.39955 57.1429 0 54.7433 0 51.7857V21.4286ZM7.14286 30.3571V33.9286C7.14286 34.9107 7.94643 35.7143 8.92857 35.7143H12.5C13.4821 35.7143 14.2857 34.9107 14.2857 33.9286V30.3571C14.2857 29.375 13.4821 28.5714 12.5 28.5714H8.92857C7.94643 28.5714 7.14286 29.375 7.14286 30.3571ZM21.4286 30.3571V33.9286C21.4286 34.9107 22.2321 35.7143 23.2143 35.7143H26.7857C27.7679 35.7143 28.5714 34.9107 28.5714 33.9286V30.3571C28.5714 29.375 27.7679 28.5714 26.7857 28.5714H23.2143C22.2321 28.5714 21.4286 29.375 21.4286 30.3571ZM37.5 28.5714C36.5179 28.5714 35.7143 29.375 35.7143 30.3571V33.9286C35.7143 34.9107 36.5179 35.7143 37.5 35.7143H41.0714C42.0536 35.7143 42.8571 34.9107 42.8571 33.9286V30.3571C42.8571 29.375 42.0536 28.5714 41.0714 28.5714H37.5ZM7.14286 44.6429V48.2143C7.14286 49.1964 7.94643 50 8.92857 50H12.5C13.4821 50 14.2857 49.1964 14.2857 48.2143V44.6429C14.2857 43.6607 13.4821 42.8571 12.5 42.8571H8.92857C7.94643 42.8571 7.14286 43.6607 7.14286 44.6429ZM23.2143 42.8571C22.2321 42.8571 21.4286 43.6607 21.4286 44.6429V48.2143C21.4286 49.1964 22.2321 50 23.2143 50H26.7857C27.7679 50 28.5714 49.1964 28.5714 48.2143V44.6429C28.5714 43.6607 27.7679 42.8571 26.7857 42.8571H23.2143ZM35.7143 44.6429V48.2143C35.7143 49.1964 36.5179 50 37.5 50H41.0714C42.0536 50 42.8571 49.1964 42.8571 48.2143V44.6429C42.8571 43.6607 42.0536 42.8571 41.0714 42.8571H37.5C36.5179 42.8571 35.7143 43.6607 35.7143 44.6429Z" fill="currentColor"/>
    </symbol>
    <symbol id="icon-handshake" viewBox="0 0 50 40" fill="none" xmlns="http://www.w3.org/2000/svg" class="app-icon-list__icon">
      <path d="M25.2656 6.65625L17.7031 12.7813C16.4453 13.7969 16.2031 15.625 17.1562 16.9297C18.1641 18.3203 20.125 18.5938 21.4766 17.5391L29.2344 11.5078C29.7812 11.0859 30.5625 11.1797 30.9922 11.7266C31.4219 12.2734 31.3203 13.0547 30.7734 13.4844L29.1406 14.75L40 24.75V10H39.9453L39.6406 9.80469L33.9688 6.17188C32.7734 5.40625 31.375 5 29.9531 5C28.25 5 26.5938 5.58594 25.2656 6.65625ZM27.0469 16.375L23.0078 19.5156C20.5469 21.4375 16.9766 20.9375 15.1328 18.4063C13.3984 16.0234 13.8359 12.6953 16.125 10.8438L22.625 5.58594C21.7188 5.20313 20.7422 5.00781 19.75 5.00781C18.2812 5 16.8516 5.4375 15.625 6.25L10 10V27.5H12.2031L19.3438 34.0156C20.875 35.4141 23.2422 35.3047 24.6406 33.7734C25.0703 33.2969 25.3594 32.7422 25.5078 32.1641L26.8359 33.3828C28.3594 34.7813 30.7344 34.6797 32.1328 33.1563C32.4844 32.7734 32.7422 32.3281 32.9062 31.8672C34.4219 32.8828 36.4844 32.6719 37.7578 31.2813C39.1562 29.7578 39.0547 27.3828 37.5312 25.9844L27.0469 16.375ZM1.25 10C0.5625 10 0 10.5625 0 11.25V27.5C0 28.8828 1.11719 30 2.5 30H5C6.38281 30 7.5 28.8828 7.5 27.5V10H1.25ZM3.75 25C4.08152 25 4.39946 25.1317 4.63388 25.3661C4.8683 25.6005 5 25.9185 5 26.25C5 26.5815 4.8683 26.8995 4.63388 27.1339C4.39946 27.3683 4.08152 27.5 3.75 27.5C3.41848 27.5 3.10054 27.3683 2.86612 27.1339C2.6317 26.8995 2.5 26.5815 2.5 26.25C2.5 25.9185 2.6317 25.6005 2.86612 25.3661C3.10054 25.1317 3.41848 25 3.75 25ZM42.5 10V27.5C42.5 28.8828 43.6172 30 45 30H47.5C48.8828 30 50 28.8828 50 27.5V11.25C50 10.5625 49.4375 10 48.75 10H42.5ZM45 26.25C45 25.9185 45.1317 25.6005 45.3661 25.3661C45.6005 25.1317 45.9185 25 46.25 25C46.5815 25 46.8995 25.1317 47.1339 25.3661C47.3683 25.6005 47.5 25.9185 47.5 26.25C47.5 26.5815 47.3683 26.8995 47.1339 27.1339C46.8995 27.3683 46.5815 27.5 46.25 27.5C45.9185 27.5 45.6005 27.3683 45.3661 27.1339C45.1317 26.8995 45 26.5815 45 26.25Z" fill="currentColor"/>
    </symbol>
    <symbol id="icon-settings" viewBox="0 0 50 50" fill="none" xmlns="http://www.w3.org/2000/svg" class="app-icon-list__icon">
      <path d="M48.4275 16.2695C48.74 17.1191 48.4763 18.0664 47.8025 18.6719L43.574 22.5195C43.6814 23.3301 43.74 24.1602 43.74 25C43.74 25.8398 43.6814 26.6699 43.574 27.4805L47.8025 31.3281C48.4763 31.9336 48.74 32.8809 48.4275 33.7305C47.9978 34.8926 47.4802 36.0059 46.8845 37.0801L46.4256 37.8711C45.781 38.9453 45.0584 39.9609 44.2674 40.918C43.6912 41.6211 42.7342 41.8555 41.8748 41.582L36.4353 39.8535C35.1267 40.8594 33.6814 41.6992 32.1385 42.334L30.9177 47.9102C30.7224 48.7988 30.0388 49.502 29.1404 49.6484C27.7927 49.873 26.406 49.9902 24.99 49.9902C23.574 49.9902 22.1873 49.873 20.8396 49.6484C19.9412 49.502 19.2576 48.7988 19.0623 47.9102L17.8416 42.334C16.2986 41.6992 14.8533 40.8594 13.5447 39.8535L8.11501 41.5918C7.25564 41.8652 6.29861 41.6211 5.72244 40.9277C4.93142 39.9707 4.20877 38.9551 3.56423 37.8809L3.10525 37.0898C2.50955 36.0156 1.99197 34.9023 1.56228 33.7402C1.24978 32.8906 1.51345 31.9434 2.18728 31.3379L6.4158 27.4902C6.30837 26.6699 6.24978 25.8398 6.24978 25C6.24978 24.1602 6.30837 23.3301 6.4158 22.5195L2.18728 18.6719C1.51345 18.0664 1.24978 17.1191 1.56228 16.2695C1.99197 15.1074 2.50955 13.9941 3.10525 12.9199L3.56423 12.1289C4.20877 11.0547 4.93142 10.0391 5.72244 9.08203C6.29861 8.37891 7.25564 8.14453 8.11501 8.41797L13.5545 10.1465C14.8631 9.14062 16.3084 8.30078 17.8513 7.66602L19.072 2.08984C19.2674 1.20117 19.951 0.498047 20.8494 0.351562C22.197 0.117187 23.5838 0 24.9998 0C26.4158 0 27.8025 0.117188 29.1502 0.341797C30.0486 0.488281 30.7322 1.19141 30.9275 2.08008L32.1482 7.65625C33.6912 8.29102 35.1365 9.13086 36.4451 10.1367L41.8845 8.4082C42.7439 8.13477 43.701 8.37891 44.2771 9.07227C45.0681 10.0293 45.7908 11.0449 46.4353 12.1191L46.8943 12.9102C47.49 13.9844 48.0076 15.0977 48.4373 16.2598L48.4275 16.2695ZM24.9998 32.8125C27.0718 32.8125 29.0589 31.9894 30.5241 30.5243C31.9892 29.0591 32.8123 27.072 32.8123 25C32.8123 22.928 31.9892 20.9409 30.5241 19.4757C29.0589 18.0106 27.0718 17.1875 24.9998 17.1875C22.9278 17.1875 20.9406 18.0106 19.4755 19.4757C18.0104 20.9409 17.1873 22.928 17.1873 25C17.1873 27.072 18.0104 29.0591 19.4755 30.5243C20.9406 31.9894 22.9278 32.8125 24.9998 32.8125Z" fill="currentColor"/>
    </symbol>
    <symbol id="icon-manage-events" viewBox="0 0 70 70" fill="none" xmlns="http://www.w3.org/2000/svg" class="app-icon-list__icon">
      <path d="M18.75 0C20.8242 0 22.5 1.67578 22.5 3.75V7.5H37.5V3.75C37.5 1.67578 39.1758 0 41.25 0C43.3242 0 45 1.67578 45 3.75V7.5H50.625C53.7305 7.5 56.25 10.0195 56.25 13.125V18.75H3.75V13.125C3.75 10.0195 6.26953 7.5 9.375 7.5H15V3.75C15 1.67578 16.6758 0 18.75 0ZM3.75 22.5H56.25V54.375C56.25 57.4805 53.7305 60 50.625 60H9.375C6.26953 60 3.75 57.4805 3.75 54.375V22.5ZM39.9375 31.2891C38.2148 29.5664 35.4141 29.5664 33.6914 31.2891L31.9453 33.0469L38.1914 39.293L39.9375 37.5469C41.6602 35.8242 41.6602 33.0234 39.9375 31.3008V31.2891ZM20.8711 44.1211C20.3906 44.6016 20.0508 45.1992 19.8867 45.8672L18.8086 50.1562C18.6445 50.8008 18.832 51.4688 19.3008 51.9375C19.7695 52.4062 20.4375 52.5938 21.082 52.4297L25.3711 51.3516C26.0273 51.1875 26.6367 50.8477 27.1172 50.3672L35.543 41.9414L29.2969 35.6953L20.8711 44.1211Z" fill="currentColor"/>
    </symbol>
    <symbol id="icon-manage-users" viewBox="0 0 70 70" fill="none" xmlns="http://www.w3.org/2000/svg" class="app-icon-list__icon">
      <path d="M13.5 15C15.4891 15 17.3968 14.2098 18.8033 12.8033C20.2098 11.3968 21 9.48912 21 7.5C21 5.51088 20.2098 3.60322 18.8033 2.1967C17.3968 0.790176 15.4891 0 13.5 0C11.5109 0 9.60322 0.790176 8.1967 2.1967C6.79018 3.60322 6 5.51088 6 7.5C6 9.48912 6.79018 11.3968 8.1967 12.8033C9.60322 14.2098 11.5109 15 13.5 15ZM48 15C49.9891 15 51.8968 14.2098 53.3033 12.8033C54.7098 11.3968 55.5 9.48912 55.5 7.5C55.5 5.51088 54.7098 3.60322 53.3033 2.1967C51.8968 0.790176 49.9891 0 48 0C46.0109 0 44.1032 0.790176 42.6967 2.1967C41.2902 3.60322 40.5 5.51088 40.5 7.5C40.5 9.48912 41.2902 11.3968 42.6967 12.8033C44.1032 14.2098 46.0109 15 48 15ZM0 28.0031C0 29.1 0.9 30 1.99687 30H22.0031C22.0219 30 22.0406 30 22.0687 30C19.575 27.7969 18.0094 24.5812 18.0094 21C18.0094 20.2875 18.075 19.5938 18.1875 18.9094C16.9125 18.3188 15.4969 18 14.0062 18H10.0031C4.48125 18 0 22.4813 0 28.0031ZM30 30C32.25 30 34.3031 29.175 35.8781 27.8156C36.1125 27.4688 36.3656 27.1313 36.6281 26.8125C36.8813 26.5031 37.1625 26.2406 37.4719 26.0344C38.4375 24.5906 39 22.8656 39 21C39 16.0312 34.9688 12 30 12C25.0312 12 21 16.0312 21 21C21 25.9688 25.0312 30 30 30ZM36.1312 35.6438C35.1656 35.0906 34.4344 34.125 34.1813 33H24.4969C17.5969 33 12 38.5969 12 45.4969C12 46.875 13.1156 48 14.5031 48H42.675C42.4781 47.5125 42.375 46.9781 42.375 46.4625V46.1813C42.2531 46.1156 42.1219 46.0406 42 45.9656L41.7562 46.1062C40.1812 47.0156 37.9594 46.8563 36.6281 45.1969C36.2063 44.6719 35.8219 44.1188 35.4656 43.5469L35.4563 43.5281L35.4469 43.5094L35.2219 43.125L35.2125 43.1062L35.2031 43.0875C34.8844 42.5063 34.6031 41.9062 34.3594 41.2781C33.5906 39.2906 34.5656 37.2844 36.1406 36.375L36.3938 36.2344C36.3938 36.1594 36.3938 36.0938 36.3938 36.0188C36.3938 35.9438 36.3938 35.8781 36.3938 35.8031L36.1406 35.6625L36.1312 35.6438ZM49.9969 18H46.0031C44.5125 18 43.0969 18.3281 41.8219 18.9094C41.9438 19.5844 42 20.2875 42 21C42 22.6313 41.6719 24.1781 41.0906 25.5938C41.325 25.6781 41.55 25.7812 41.7562 25.9031L42 26.0437C42.1219 25.9687 42.2438 25.8937 42.375 25.8281V25.5469C42.375 23.7281 43.6219 21.8812 45.7312 21.5531C46.4719 21.4406 47.2313 21.375 48 21.375C48.7687 21.375 49.5281 21.4312 50.2688 21.5531C52.3781 21.8812 53.625 23.7281 53.625 25.5469V25.8281C53.7469 25.8937 53.8781 25.9687 54 26.0437L54.2437 25.9031C55.8187 24.9937 58.0406 25.1531 59.3719 26.8125C59.5875 27.075 59.7938 27.3563 59.9906 27.6281C59.7938 22.275 55.3969 18 49.9969 18ZM58.5562 33.3656C59.1469 33.0281 59.4469 32.325 59.1938 31.6781C58.9969 31.1625 58.7625 30.6656 58.5 30.1875L58.2844 29.8125C57.9938 29.3344 57.675 28.8844 57.3281 28.4531C56.8969 27.9188 56.1375 27.825 55.5469 28.1719L53.85 29.1562C53.0156 28.4438 52.0594 27.8812 51 27.5062V25.5375C51 24.8531 50.5406 24.2437 49.8656 24.1406C49.2563 24.0469 48.6375 24 48 24C47.3625 24 46.7438 24.0469 46.1344 24.1406C45.4594 24.2437 45 24.8531 45 25.5375V27.5062C43.95 27.8812 42.9844 28.4438 42.15 29.1562L40.4437 28.1719C39.8531 27.8344 39.0938 27.9281 38.6625 28.4531C38.3156 28.8844 37.9969 29.3438 37.7063 29.8219L37.4906 30.1875C37.2281 30.6656 36.9938 31.1625 36.7969 31.6781C36.5531 32.3156 36.8438 33.0187 37.4344 33.3562L39.1406 34.3406C39.0469 34.875 38.9906 35.4281 38.9906 35.9906C38.9906 36.5531 39.0469 37.1063 39.1406 37.6312L37.4344 38.6156C36.8438 38.9531 36.5438 39.6562 36.7969 40.2937C36.9938 40.8094 37.2281 41.2969 37.4906 41.775L37.7156 42.1594C37.9969 42.6375 38.3156 43.0875 38.6625 43.5188C39.0938 44.0531 39.8531 44.1469 40.4437 43.8L42.15 42.8438C42.9844 43.5563 43.95 44.1188 45 44.4938V46.4625C45 47.1469 45.4594 47.7562 46.1344 47.8594C46.7438 47.9531 47.3625 48 48 48C48.6375 48 49.2563 47.9531 49.8656 47.8594C50.5406 47.7562 51 47.1469 51 46.4625V44.4938C52.05 44.1188 53.0156 43.5563 53.85 42.8438L55.5562 43.8281C56.1469 44.1656 56.9062 44.0719 57.3375 43.5469C57.6844 43.1156 58.0031 42.6656 58.2844 42.1875L58.5094 41.7937C58.7719 41.3156 59.0062 40.8281 59.2031 40.3125C59.4469 39.675 59.1562 38.9719 58.5656 38.6344L56.8594 37.65C56.9531 37.1156 57.0094 36.5625 57.0094 36.0094C57.0094 35.4562 56.9531 34.8937 56.8594 34.3594L58.5656 33.375L58.5562 33.3656ZM44.25 36C44.25 35.0054 44.6451 34.0516 45.3484 33.3484C46.0516 32.6451 47.0054 32.25 48 32.25C48.9946 32.25 49.9484 32.6451 50.6517 33.3484C51.3549 34.0516 51.75 35.0054 51.75 36C51.75 36.9946 51.3549 37.9484 50.6517 38.6516C49.9484 39.3549 48.9946 39.75 48 39.75C47.0054 39.75 46.0516 39.3549 45.3484 38.6516C44.6451 37.9484 44.25 36.9946 44.25 36Z" fill="currentColor"/>
    </symbol>
    <symbol id="icon-linkedin" viewBox="0 0 79 81" fill="none" xmlns="http://www.w3.org/2000/svg" class="app-icon-list__icon">
      <path d="M73.3571 0.6875H5.62522C2.52165 0.6875 0 3.26465 0 6.42832V74.5717C0 77.7354 2.52165 80.3125 5.62522 80.3125H73.3571C76.4607 80.3125 79 77.7354 79 74.5717V6.42832C79 3.26465 76.4607 0.6875 73.3571 0.6875ZM23.8763 68.9375H12.1674V30.9379H23.894V68.9375H23.8763ZM18.0219 25.748C14.2658 25.748 11.2328 22.6732 11.2328 18.9053C11.2328 15.1373 14.2658 12.0625 18.0219 12.0625C21.7603 12.0625 24.8109 15.1373 24.8109 18.9053C24.8109 22.691 21.7779 25.748 18.0219 25.748ZM67.7672 68.9375H56.0583V50.4531C56.0583 46.0453 55.9701 40.3756 49.9746 40.3756C43.8732 40.3756 42.9386 45.1744 42.9386 50.1332V68.9375H31.2297V30.9379H42.4625V36.1277H42.6212C44.1906 33.1418 48.0172 29.9959 53.7129 29.9959C65.5629 29.9959 67.7672 37.8695 67.7672 48.107V68.9375Z" fill="#1D3150"/>
    </symbol>
    <symbol id="icon-email" viewBox="0 0 80 80" fill="none" xmlns="http://www.w3.org/2000/svg" class="app-icon-list__icon">
      <path d="M7.5 10C3.35938 10 0 13.3594 0 17.5C0 19.8594 1.10938 22.0781 3 23.5L37 49C38.7812 50.3281 41.2188 50.3281 43 49L77 23.5C78.8906 22.0781 80 19.8594 80 17.5C80 13.3594 76.6406 10 72.5 10H7.5ZM0 27.5V60C0 65.5156 4.48438 70 10 70H70C75.5156 70 80 65.5156 80 60V27.5L46 53C42.4375 55.6719 37.5625 55.6719 34 53L0 27.5Z" fill="#1D3150"/>
    </symbol>
  </defs>
</svg>